<svg xmlns="http://www.w3.org/2000/svg" width="14" height="14" viewBox="0 0 14 14">
  <path id="instagram" d="M7,0C5.1,0,4.861.009,4.114.042a5.162,5.162,0,0,0-1.7.325,3.428,3.428,0,0,0-1.24.807,3.415,3.415,0,0,0-.807,1.24,5.147,5.147,0,0,0-.325,1.7C.007,4.861,0,5.1,0,7S.009,9.139.042,9.886a5.165,5.165,0,0,0,.325,1.7,3.433,3.433,0,0,0,.807,1.24,3.423,3.423,0,0,0,1.24.807,5.168,5.168,0,0,0,1.7.326C4.861,13.993,5.1,14,7,14s2.139-.009,2.886-.042a5.18,5.18,0,0,0,1.7-.326,3.577,3.577,0,0,0,2.047-2.047,5.165,5.165,0,0,0,.326-1.7C13.993,9.139,14,8.9,14,7s-.009-2.139-.042-2.886a5.177,5.177,0,0,0-.326-1.7,3.436,3.436,0,0,0-.807-1.24,3.411,3.411,0,0,0-1.24-.807,5.15,5.15,0,0,0-1.7-.325C9.139.007,8.9,0,7,0ZM7,1.26c1.868,0,2.091.009,2.829.041a3.857,3.857,0,0,1,1.3.242,2.3,2.3,0,0,1,1.329,1.328,3.865,3.865,0,0,1,.241,1.3c.033.739.041.96.041,2.829S12.73,9.091,12.7,9.829a3.939,3.939,0,0,1-.246,1.3,2.223,2.223,0,0,1-.524.806,2.184,2.184,0,0,1-.8.523,3.893,3.893,0,0,1-1.3.241c-.743.033-.962.041-2.834.041S4.891,12.73,4.148,12.7a3.969,3.969,0,0,1-1.3-.246,2.168,2.168,0,0,1-.8-.524,2.125,2.125,0,0,1-.525-.8,3.973,3.973,0,0,1-.245-1.3c-.026-.735-.036-.962-.036-2.826s.009-2.092.036-2.836a3.968,3.968,0,0,1,.245-1.3,2.075,2.075,0,0,1,.525-.806,2.07,2.07,0,0,1,.8-.524,3.874,3.874,0,0,1,1.3-.246c.744-.026.963-.035,2.834-.035L7,1.26ZM7,3.405A3.594,3.594,0,1,0,10.594,7,3.594,3.594,0,0,0,7,3.405ZM7,9.333A2.333,2.333,0,1,1,9.333,7,2.333,2.333,0,0,1,7,9.333Zm4.577-6.07a.84.84,0,1,1-.84-.839A.841.841,0,0,1,11.577,3.264Z" fill="#fff"/>
</svg>
